<svg xmlns="http://www.w3.org/2000/svg" xmlns:xlink="http://www.w3.org/1999/xlink" width="500" zoomAndPan="magnify" viewBox="0 0 375 374.999991" height="500" preserveAspectRatio="xMidYMid meet" version="1.0"><defs><clipPath id="6db9075298"><path d="M 34.058594 46 L 219 46 L 219 329.9375 L 34.058594 329.9375 Z M 34.058594 46 " clip-rule="nonzero"/></clipPath><clipPath id="f15ba2e737"><path d="M 34.058594 46 L 219 46 L 219 260 L 34.058594 260 Z M 34.058594 46 " clip-rule="nonzero"/></clipPath><clipPath id="1a985607da"><path d="M 285 45 L 340.808594 45 L 340.808594 102 L 285 102 Z M 285 45 " clip-rule="nonzero"/></clipPath><clipPath id="4e7d425c7b"><path d="M 151 49 L 340.808594 49 L 340.808594 328 L 151 328 Z M 151 49 " clip-rule="nonzero"/></clipPath><clipPath id="ad7d52aff4"><path d="M 151 49 L 340.808594 49 L 340.808594 259 L 151 259 Z M 151 49 " clip-rule="nonzero"/></clipPath></defs><g clip-path="url(#6db9075298)"><path fill="#72ffff" d="M 107.050781 59.222656 L 205.691406 157.863281 C 206.679688 158.851562 207.621094 159.886719 208.507812 160.972656 C 209.398438 162.054688 210.230469 163.175781 211.007812 164.339844 C 211.789062 165.507812 212.507812 166.707031 213.167969 167.941406 C 213.828125 169.175781 214.425781 170.441406 214.960938 171.734375 C 215.496094 173.027344 215.96875 174.347656 216.375 175.6875 C 216.78125 177.027344 217.121094 178.382812 217.394531 179.757812 C 217.667969 181.128906 217.871094 182.515625 218.007812 183.910156 C 218.148438 185.300781 218.214844 186.699219 218.214844 188.101562 C 218.214844 189.5 218.148438 190.898438 218.007812 192.292969 C 217.871094 193.683594 217.667969 195.070312 217.394531 196.441406 C 217.121094 197.816406 216.78125 199.171875 216.375 200.511719 C 215.96875 201.855469 215.496094 203.171875 214.960938 204.464844 C 214.425781 205.757812 213.828125 207.023438 213.167969 208.257812 C 212.507812 209.492188 211.789062 210.695312 211.007812 211.859375 C 210.230469 213.023438 209.398438 214.144531 208.507812 215.230469 C 207.621094 216.3125 206.679688 217.347656 205.691406 218.339844 L 107.050781 316.976562 C 80.113281 343.917969 34.035156 324.824219 34.058594 286.707031 L 34.058594 89.425781 C 34.035156 51.375 80.113281 32.28125 107.050781 59.222656 Z M 107.050781 59.222656 " fill-opacity="1" fill-rule="nonzero"/></g><g clip-path="url(#f15ba2e737)"><path fill="#00d7ff" d="M 107.050781 59.222656 C 80.265625 32.4375 34.714844 51.15625 34.082031 88.792969 C 34.082031 88.792969 189.296875 235.65625 164.613281 259.589844 L 205.777344 218.425781 C 206.769531 217.4375 207.707031 216.398438 208.597656 215.316406 C 209.484375 214.234375 210.320312 213.109375 211.097656 211.945312 C 211.875 210.78125 212.59375 209.582031 213.253906 208.347656 C 213.914062 207.109375 214.511719 205.847656 215.046875 204.550781 C 215.585938 203.257812 216.054688 201.941406 216.460938 200.601562 C 216.867188 199.261719 217.207031 197.902344 217.480469 196.53125 C 217.753906 195.15625 217.960938 193.773438 218.097656 192.378906 C 218.234375 190.984375 218.304688 189.585938 218.304688 188.1875 C 218.304688 186.785156 218.234375 185.390625 218.097656 183.996094 C 217.960938 182.601562 217.753906 181.21875 217.480469 179.84375 C 217.207031 178.472656 216.867188 177.113281 216.460938 175.773438 C 216.054688 174.433594 215.585938 173.117188 215.046875 171.824219 C 214.511719 170.527344 213.914062 169.265625 213.253906 168.027344 C 212.59375 166.792969 211.875 165.59375 211.097656 164.429688 C 210.320312 163.265625 209.484375 162.140625 208.597656 161.058594 C 207.707031 159.976562 206.769531 158.9375 205.777344 157.949219 Z M 107.050781 59.222656 " fill-opacity="1" fill-rule="nonzero"/></g><g clip-path="url(#1a985607da)"><path fill="#590696" d="M 340.9375 73.207031 C 340.9375 74.121094 340.890625 75.035156 340.800781 75.945312 C 340.710938 76.855469 340.578125 77.761719 340.398438 78.660156 C 340.222656 79.558594 340 80.445312 339.734375 81.320312 C 339.46875 82.195312 339.160156 83.054688 338.808594 83.902344 C 338.460938 84.746094 338.070312 85.574219 337.636719 86.382812 C 337.207031 87.1875 336.734375 87.972656 336.226562 88.734375 C 335.71875 89.496094 335.175781 90.230469 334.59375 90.9375 C 334.011719 91.644531 333.398438 92.320312 332.75 92.96875 C 332.105469 93.617188 331.425781 94.230469 330.71875 94.8125 C 330.011719 95.390625 329.277344 95.9375 328.515625 96.445312 C 327.753906 96.953125 326.972656 97.421875 326.164062 97.855469 C 325.355469 98.285156 324.53125 98.675781 323.683594 99.027344 C 322.839844 99.378906 321.976562 99.683594 321.101562 99.953125 C 320.226562 100.21875 319.339844 100.4375 318.441406 100.617188 C 317.542969 100.796875 316.640625 100.929688 315.730469 101.019531 C 314.816406 101.109375 313.90625 101.15625 312.988281 101.15625 C 312.074219 101.15625 311.160156 101.109375 310.25 101.019531 C 309.339844 100.929688 308.433594 100.796875 307.535156 100.617188 C 306.640625 100.4375 305.753906 100.21875 304.875 99.953125 C 304 99.683594 303.140625 99.378906 302.292969 99.027344 C 301.449219 98.675781 300.621094 98.285156 299.816406 97.855469 C 299.007812 97.421875 298.222656 96.953125 297.460938 96.445312 C 296.699219 95.9375 295.964844 95.390625 295.257812 94.8125 C 294.550781 94.230469 293.875 93.617188 293.226562 92.96875 C 292.578125 92.320312 291.964844 91.644531 291.386719 90.9375 C 290.804688 90.230469 290.261719 89.496094 289.75 88.734375 C 289.242188 87.972656 288.773438 87.1875 288.339844 86.382812 C 287.910156 85.574219 287.519531 84.746094 287.167969 83.902344 C 286.820312 83.054688 286.511719 82.195312 286.246094 81.320312 C 285.980469 80.445312 285.757812 79.558594 285.578125 78.660156 C 285.398438 77.761719 285.265625 76.855469 285.175781 75.945312 C 285.085938 75.035156 285.042969 74.121094 285.042969 73.207031 C 285.042969 72.292969 285.085938 71.378906 285.175781 70.46875 C 285.265625 69.554688 285.398438 68.652344 285.578125 67.753906 C 285.757812 66.855469 285.980469 65.96875 286.246094 65.09375 C 286.511719 64.21875 286.820312 63.355469 287.167969 62.511719 C 287.519531 61.664062 287.910156 60.839844 288.339844 60.03125 C 288.773438 59.226562 289.242188 58.441406 289.75 57.679688 C 290.261719 56.917969 290.804688 56.183594 291.386719 55.476562 C 291.964844 54.769531 292.578125 54.09375 293.226562 53.445312 C 293.875 52.796875 294.550781 52.183594 295.257812 51.601562 C 295.964844 51.023438 296.699219 50.476562 297.460938 49.96875 C 298.222656 49.460938 299.007812 48.992188 299.816406 48.558594 C 300.621094 48.128906 301.449219 47.738281 302.292969 47.386719 C 303.140625 47.035156 304 46.726562 304.875 46.460938 C 305.753906 46.195312 306.640625 45.972656 307.535156 45.796875 C 308.433594 45.617188 309.339844 45.484375 310.25 45.394531 C 311.160156 45.304688 312.074219 45.257812 312.988281 45.257812 C 313.90625 45.257812 314.816406 45.304688 315.730469 45.394531 C 316.640625 45.484375 317.542969 45.617188 318.441406 45.796875 C 319.339844 45.972656 320.226562 46.195312 321.101562 46.460938 C 321.976562 46.726562 322.839844 47.035156 323.683594 47.386719 C 324.53125 47.738281 325.355469 48.128906 326.164062 48.558594 C 326.972656 48.992188 327.753906 49.460938 328.515625 49.96875 C 329.277344 50.476562 330.011719 51.023438 330.71875 51.601562 C 331.425781 52.183594 332.105469 52.796875 332.75 53.445312 C 333.398438 54.09375 334.011719 54.769531 334.59375 55.476562 C 335.175781 56.183594 335.71875 56.917969 336.226562 57.679688 C 336.734375 58.441406 337.207031 59.226562 337.636719 60.03125 C 338.070312 60.839844 338.460938 61.664062 338.808594 62.511719 C 339.160156 63.355469 339.46875 64.21875 339.734375 65.09375 C 340 65.96875 340.222656 66.855469 340.398438 67.753906 C 340.578125 68.652344 340.710938 69.554688 340.800781 70.46875 C 340.890625 71.378906 340.9375 72.292969 340.9375 73.207031 Z M 340.9375 73.207031 " fill-opacity="1" fill-rule="nonzero"/><path fill="#590696" d="M 340.9375 73.207031 C 340.9375 74.121094 340.890625 75.035156 340.800781 75.945312 C 340.710938 76.855469 340.578125 77.761719 340.398438 78.660156 C 340.222656 79.558594 340 80.445312 339.734375 81.320312 C 339.46875 82.195312 339.160156 83.054688 338.808594 83.902344 C 338.460938 84.746094 338.070312 85.574219 337.636719 86.382812 C 337.207031 87.1875 336.734375 87.972656 336.226562 88.734375 C 335.71875 89.496094 335.175781 90.230469 334.59375 90.9375 C 334.011719 91.644531 333.398438 92.320312 332.75 92.96875 C 332.105469 93.617188 331.425781 94.230469 330.71875 94.8125 C 330.011719 95.390625 329.277344 95.9375 328.515625 96.445312 C 327.753906 96.953125 326.972656 97.421875 326.164062 97.855469 C 325.355469 98.285156 324.53125 98.675781 323.683594 99.027344 C 322.839844 99.378906 321.976562 99.683594 321.101562 99.953125 C 320.226562 100.21875 319.339844 100.4375 318.441406 100.617188 C 317.542969 100.796875 316.640625 100.929688 315.730469 101.019531 C 314.816406 101.109375 313.90625 101.15625 312.988281 101.15625 C 312.074219 101.15625 311.160156 101.109375 310.25 101.019531 C 309.339844 100.929688 308.433594 100.796875 307.535156 100.617188 C 306.640625 100.4375 305.753906 100.21875 304.875 99.953125 C 304 99.683594 303.140625 99.378906 302.292969 99.027344 C 301.449219 98.675781 300.621094 98.285156 299.816406 97.855469 C 299.007812 97.421875 298.222656 96.953125 297.460938 96.445312 C 296.699219 95.9375 295.964844 95.390625 295.257812 94.8125 C 294.550781 94.230469 293.875 93.617188 293.226562 92.96875 C 292.578125 92.320312 291.964844 91.644531 291.386719 90.9375 C 290.804688 90.230469 290.261719 89.496094 289.75 88.734375 C 289.242188 87.972656 288.773438 87.1875 288.339844 86.382812 C 287.910156 85.574219 287.519531 84.746094 287.167969 83.902344 C 286.820312 83.054688 286.511719 82.195312 286.246094 81.320312 C 285.980469 80.445312 285.757812 79.558594 285.578125 78.660156 C 285.398438 77.761719 285.265625 76.855469 285.175781 75.945312 C 285.085938 75.035156 285.042969 74.121094 285.042969 73.207031 C 285.042969 72.292969 285.085938 71.378906 285.175781 70.46875 C 285.265625 69.554688 285.398438 68.652344 285.578125 67.753906 C 285.757812 66.855469 285.980469 65.96875 286.246094 65.09375 C 286.511719 64.21875 286.820312 63.355469 287.167969 62.511719 C 287.519531 61.664062 287.910156 60.839844 288.339844 60.03125 C 288.773438 59.226562 289.242188 58.441406 289.75 57.679688 C 290.261719 56.917969 290.804688 56.183594 291.386719 55.476562 C 291.964844 54.769531 292.578125 54.09375 293.226562 53.445312 C 293.875 52.796875 294.550781 52.183594 295.257812 51.601562 C 295.964844 51.023438 296.699219 50.476562 297.460938 49.96875 C 298.222656 49.460938 299.007812 48.992188 299.816406 48.558594 C 300.621094 48.128906 301.449219 47.738281 302.292969 47.386719 C 303.140625 47.035156 304 46.726562 304.875 46.460938 C 305.753906 46.195312 306.640625 45.972656 307.535156 45.796875 C 308.433594 45.617188 309.339844 45.484375 310.25 45.394531 C 311.160156 45.304688 312.074219 45.257812 312.988281 45.257812 C 313.90625 45.257812 314.816406 45.304688 315.730469 45.394531 C 316.640625 45.484375 317.542969 45.617188 318.441406 45.796875 C 319.339844 45.972656 320.226562 46.195312 321.101562 46.460938 C 321.976562 46.726562 322.839844 47.035156 323.683594 47.386719 C 324.53125 47.738281 325.355469 48.128906 326.164062 48.558594 C 326.972656 48.992188 327.753906 49.460938 328.515625 49.96875 C 329.277344 50.476562 330.011719 51.023438 330.71875 51.601562 C 331.425781 52.183594 332.105469 52.796875 332.75 53.445312 C 333.398438 54.09375 334.011719 54.769531 334.59375 55.476562 C 335.175781 56.183594 335.71875 56.917969 336.226562 57.679688 C 336.734375 58.441406 337.207031 59.226562 337.636719 60.03125 C 338.070312 60.839844 338.460938 61.664062 338.808594 62.511719 C 339.160156 63.355469 339.46875 64.21875 339.734375 65.09375 C 340 65.96875 340.222656 66.855469 340.398438 67.753906 C 340.578125 68.652344 340.710938 69.554688 340.800781 70.46875 C 340.890625 71.378906 340.9375 72.292969 340.9375 73.207031 Z M 340.9375 73.207031 " fill-opacity="1" fill-rule="nonzero"/></g><g clip-path="url(#4e7d425c7b)"><path fill="#0096ff" d="M 328.398438 158.101562 L 229.757812 59.460938 C 203.28125 32.960938 132.699219 63.691406 156.855469 87.847656 L 227.785156 158.804688 C 228.777344 159.792969 229.71875 160.828125 230.605469 161.910156 C 231.496094 162.992188 232.328125 164.117188 233.105469 165.28125 C 233.886719 166.445312 234.605469 167.644531 235.265625 168.878906 C 235.925781 170.113281 236.523438 171.375 237.0625 172.671875 C 237.597656 173.964844 238.070312 175.28125 238.476562 176.621094 C 238.882812 177.960938 239.222656 179.316406 239.496094 180.691406 C 239.769531 182.0625 239.976562 183.445312 240.113281 184.839844 C 240.25 186.234375 240.316406 187.632812 240.316406 189.03125 C 240.316406 190.433594 240.25 191.828125 240.113281 193.222656 C 239.976562 194.617188 239.769531 196 239.496094 197.371094 C 239.222656 198.746094 238.882812 200.101562 238.476562 201.441406 C 238.070312 202.78125 237.597656 204.097656 237.0625 205.394531 C 236.523438 206.6875 235.925781 207.949219 235.265625 209.183594 C 234.605469 210.417969 233.886719 211.617188 233.105469 212.78125 C 232.328125 213.945312 231.496094 215.070312 230.605469 216.152344 C 229.71875 217.234375 228.777344 218.269531 227.785156 219.257812 L 156.898438 290.171875 C 135.285156 311.761719 203.542969 343.609375 229.757812 317.394531 L 328.398438 218.753906 C 329.394531 217.765625 330.339844 216.726562 331.234375 215.640625 C 332.128906 214.558594 332.96875 213.429688 333.753906 212.265625 C 334.535156 211.097656 335.261719 209.894531 335.925781 208.65625 C 336.589844 207.417969 337.191406 206.148438 337.734375 204.851562 C 338.273438 203.554688 338.746094 202.230469 339.15625 200.886719 C 339.566406 199.542969 339.910156 198.179688 340.183594 196.800781 C 340.457031 195.421875 340.664062 194.035156 340.804688 192.636719 C 340.941406 191.238281 341.011719 189.835938 341.011719 188.429688 C 341.011719 187.023438 340.941406 185.621094 340.804688 184.222656 C 340.664062 182.824219 340.457031 181.433594 340.183594 180.054688 C 339.910156 178.675781 339.566406 177.316406 339.15625 175.96875 C 338.746094 174.625 338.273438 173.304688 337.734375 172.007812 C 337.191406 170.707031 336.589844 169.441406 335.925781 168.203125 C 335.261719 166.964844 334.535156 165.761719 333.753906 164.59375 C 332.96875 163.425781 332.128906 162.300781 331.234375 161.214844 C 330.339844 160.132812 329.394531 159.09375 328.398438 158.101562 Z M 328.398438 158.101562 " fill-opacity="1" fill-rule="nonzero"/></g><g clip-path="url(#ad7d52aff4)"><path fill="#5800ff" d="M 328.398438 158.101562 L 229.757812 59.460938 C 203.28125 32.960938 132.699219 63.691406 156.855469 87.847656 L 227.785156 158.804688 C 229.488281 160.5 231.03125 162.328125 232.421875 164.289062 C 233.8125 166.246094 235.027344 168.308594 236.070312 170.472656 C 237.113281 172.640625 237.964844 174.875 238.625 177.1875 C 239.289062 179.496094 239.753906 181.84375 240.019531 184.230469 C 264.457031 212.925781 284.777344 240.785156 289.007812 258.144531 L 328.464844 218.6875 C 329.457031 217.695312 330.398438 216.660156 331.292969 215.574219 C 332.183594 214.488281 333.019531 213.363281 333.796875 212.195312 C 334.578125 211.03125 335.300781 209.828125 335.960938 208.589844 C 336.621094 207.351562 337.222656 206.082031 337.757812 204.785156 C 338.296875 203.488281 338.769531 202.167969 339.175781 200.824219 C 339.582031 199.480469 339.921875 198.121094 340.195312 196.746094 C 340.46875 195.367188 340.671875 193.980469 340.808594 192.582031 C 340.945312 191.1875 341.011719 189.785156 341.011719 188.382812 C 341.007812 186.976562 340.9375 185.578125 340.800781 184.179688 C 340.660156 182.785156 340.453125 181.398438 340.175781 180.019531 C 339.902344 178.644531 339.558594 177.285156 339.148438 175.941406 C 338.738281 174.601562 338.261719 173.28125 337.722656 171.984375 C 337.183594 170.6875 336.582031 169.421875 335.917969 168.1875 C 335.253906 166.949219 334.527344 165.75 333.746094 164.582031 C 332.964844 163.417969 332.125 162.292969 331.230469 161.210938 C 330.339844 160.128906 329.394531 159.09375 328.398438 158.101562 Z M 328.398438 158.101562 " fill-opacity="1" fill-rule="nonzero"/></g></svg>